<svg width="19" height="19" viewBox="0 0 19 19" fill="none" xmlns="http://www.w3.org/2000/svg">
<path d="M5.707 17.2926L15 7.99957L10.586 3.58557L1.293 12.8786C1.16506 13.0067 1.07418 13.167 1.03 13.3426L0 18.5856L5.242 17.5556C5.418 17.5116 5.579 17.4206 5.707 17.2926ZM18 4.99957C18.3749 4.62452 18.5856 4.1159 18.5856 3.58557C18.5856 3.05524 18.3749 2.54663 18 2.17157L16.414 0.585573C16.0389 0.210631 15.5303 0 15 0C14.4697 0 13.9611 0.210631 13.586 0.585573L12 2.17157L16.414 6.58557L18 4.99957Z" fill="white"/>
</svg>
