<svg width="20" height="12" viewBox="0 0 20 12" fill="none" xmlns="http://www.w3.org/2000/svg">
<path d="M6 3C4.372 3 3 4.372 3 6C3 7.628 4.372 9 6 9C7.628 9 9 7.628 9 6C9 4.372 7.628 3 6 3Z" fill="#505050"/>
<path d="M14 0H6C2.7 0 0.011 2.689 0 6V6.016C0.00686652 7.60371 0.64172 9.1242 1.76591 10.2454C2.8901 11.3666 4.41228 11.9974 6 12H14C15.5894 11.9974 17.1131 11.3652 18.2376 10.2418C19.3621 9.1185 19.9958 7.59545 20 6.006V6C19.991 2.691 17.301 0 14 0ZM14 10H6C4.94135 9.99842 3.92636 9.57786 3.17685 8.83022C2.42733 8.08257 2.00423 7.06864 2 6.01C2.004 3.799 3.798 2 6 2H14C16.202 2 17.996 3.799 18 6.006C17.9966 7.06526 17.5738 8.08006 16.8243 8.82851C16.0747 9.57696 15.0593 9.99816 14 10ZM18 6.016L18.443 6.012L19 6.016H18Z" fill="#303030"/>
</svg>
